<svg width="200" height="200" viewBox="0 0 200 200" fill="none" xmlns="http://www.w3.org/2000/svg">
  <defs>
    <filter id="clay-sns" x="-20%" y="-20%" width="140%" height="140%">
      <feGaussianBlur stdDeviation="2"/>
      <feSpecularLighting surfaceScale="5" specularConstant="0.8" specularExponent="15" lighting-color="#ffffff">
        <fePointLight x="-20" y="-20" z="100"/>
      </feSpecularLighting>
      <feComposite in2="SourceAlpha" operator="in"/>
      <feComposite in="SourceGraphic" operator="arithmetic" k1="0" k2="1" k3="1" k4="0"/>
    </filter>
  </defs>
  <!-- Instagram -->
  <rect x="40" y="40" width="60" height="60" rx="20" fill="#8c52ff" filter="url(#clay-sns)"/>
  <circle cx="70" cy="70" r="15" stroke="white" stroke-width="4" fill="none"/>
  <!-- X -->
  <rect x="100" y="80" width="60" height="60" rx="20" fill="#efff00" filter="url(#clay-sns)"/>
  <path d="M120 100L140 120M140 100L120 120" stroke="#5c72ff" stroke-width="6" stroke-linecap="round"/>
  <!-- Maps -->
  <rect x="30" y="110" width="60" height="60" rx="20" fill="white" filter="url(#clay-sns)"/>
  <path d="M60 125C60 125 45 140 45 150C45 158 52 165 60 165C68 165 75 158 75 150C75 140 60 125 60 125Z" fill="#5c72ff"/>
</svg>
